<svg id="Capa_1" enable-background="new 0 0 512 512" height="512" viewBox="0 0 512 512" width="512" xmlns="http://www.w3.org/2000/svg"><g><g><g><g><g><circle cx="319.147" cy="60.121" r="7.377"/><circle cx="348.696" cy="60.121" r="7.377"/></g></g></g></g><g><path d="m154.507 308.645h202.986c4.143 0 7.5-3.358 7.5-7.5s-3.357-7.5-7.5-7.5h-202.986c-4.143 0-7.5 3.358-7.5 7.5s3.357 7.5 7.5 7.5z"/><path d="m154.507 345.71h202.986c4.143 0 7.5-3.358 7.5-7.5s-3.357-7.5-7.5-7.5h-202.986c-4.143 0-7.5 3.358-7.5 7.5s3.357 7.5 7.5 7.5z"/><path d="m154.507 382.775h202.986c4.143 0 7.5-3.358 7.5-7.5s-3.357-7.5-7.5-7.5h-202.986c-4.143 0-7.5 3.358-7.5 7.5s3.357 7.5 7.5 7.5z"/><path d="m305.024 217.859h52.469c4.143 0 7.5-3.358 7.5-7.5s-3.357-7.5-7.5-7.5h-52.469c-4.143 0-7.5 3.358-7.5 7.5s3.358 7.5 7.5 7.5z"/><path d="m305.024 179.243h52.469c4.143 0 7.5-3.358 7.5-7.5s-3.357-7.5-7.5-7.5h-52.469c-4.143 0-7.5 3.358-7.5 7.5s3.358 7.5 7.5 7.5z"/><path d="m170.19 263.844h80.017c12.783 0 23.184-10.4 23.184-23.184v-99.219c0-12.784-10.4-23.184-23.184-23.184h-80.017c-12.783 0-23.184 10.4-23.184 23.184v99.219c.001 12.784 10.401 23.184 23.184 23.184zm80.017-15h-80.017c-2.962 0-5.554-1.587-6.99-3.95 5.894-13.954 17.595-24.509 32.057-28.917 4.477 2.33 9.556 3.655 14.942 3.655s10.465-1.325 14.942-3.656c14.461 4.407 26.162 14.963 32.057 28.917-1.438 2.364-4.029 3.951-6.991 3.951zm-40.009-44.212c-9.639 0-17.48-7.842-17.48-17.481s7.842-17.481 17.48-17.481c9.64 0 17.481 7.842 17.481 17.481s-7.841 17.481-17.481 17.481zm-40.008-71.374h80.017c4.513 0 8.184 3.671 8.184 8.184v78.152c-5.871-6.269-12.938-11.362-20.848-14.947 3.245-5.054 5.137-11.057 5.137-17.496 0-17.91-14.571-32.481-32.481-32.481s-32.48 14.571-32.48 32.481c0 6.439 1.891 12.442 5.136 17.496-7.91 3.585-14.977 8.677-20.847 14.946v-78.151c-.001-4.514 3.67-8.184 8.182-8.184z"/><path d="m492.084 412.153h-14.264v-235.903c0-15.547-12.648-28.195-28.195-28.195h-18.141c-4.143 0-7.5 3.358-7.5 7.5s3.357 7.5 7.5 7.5h18.141c7.276 0 13.195 5.919 13.195 13.195v235.903h-25.001v-202.86c0-11.71-9.527-21.237-21.237-21.237h-12.736v-139.449c0-11.455-9.319-20.774-20.773-20.774h-254.145c-11.454 0-20.773 9.319-20.773 20.774v139.448h-12.737c-11.71 0-21.237 9.527-21.237 21.237v202.86h-25v-235.902c0-7.276 5.919-13.195 13.194-13.195h18.217c4.143 0 7.5-3.358 7.5-7.5s-3.357-7.5-7.5-7.5h-18.217c-15.547 0-28.194 12.648-28.194 28.195v235.903h-14.265c-10.981 0-19.916 8.935-19.916 19.917 0 28.727 23.37 52.097 52.097 52.097h407.807c28.727 0 52.097-23.371 52.097-52.097-.001-10.982-8.936-19.917-19.917-19.917zm-75.502-209.098c3.439 0 6.237 2.798 6.237 6.237v202.86h-18.974v-209.097zm-287.654-160.222h254.145c3.184 0 5.773 2.59 5.773 5.774v28.802h-216.199c-4.143 0-7.5 3.358-7.5 7.5s3.357 7.5 7.5 7.5h216.198v319.744h-265.691v-319.744h14.013c4.143 0 7.5-3.358 7.5-7.5s-3.357-7.5-7.5-7.5h-14.013v-28.802c0-3.183 2.59-5.774 5.774-5.774zm193.889 384.32c-3.029 7.885-10.66 13.507-19.599 13.507h-94.438c-8.938 0-16.57-5.622-19.599-13.507zm-233.636-217.86c0-3.439 2.798-6.237 6.237-6.237h12.736v209.098h-18.973zm370.722 259.874h-407.806c-20.455 0-37.097-16.642-37.097-37.097 0-2.711 2.205-4.917 4.916-4.917h153.65c3.461 16.266 17.933 28.507 35.216 28.507h94.438c17.283 0 31.755-12.241 35.216-28.507h153.65c2.711 0 4.916 2.206 4.916 4.917-.002 20.455-16.644 37.097-37.099 37.097z"/></g></g></svg>